<svg xmlns="http://www.w3.org/2000/svg" xmlns:xlink="http://www.w3.org/1999/xlink" width="500" zoomAndPan="magnify" viewBox="0 0 375 374.999991" height="500" preserveAspectRatio="xMidYMid meet" version="1.0"><defs><clipPath id="48e36ede70"><path d="M 0.820312 3.1875 L 308.179688 3.1875 L 308.179688 241.390625 L 0.820312 241.390625 Z M 0.820312 3.1875 " clip-rule="nonzero"/></clipPath><clipPath id="86c143d854"><rect x="0" width="309" y="0" height="245"/></clipPath></defs><g transform="matrix(1, 0, 0, 1, 33, 65)"><g clip-path="url(#86c143d854)"><g clip-path="url(#48e36ede70)"><path fill="#f9943b" d="M 276.382812 3.261719 L 32.617188 3.261719 C 15.128906 3.261719 0.820312 17.570312 0.820312 35.054688 L 0.820312 209.933594 C 0.820312 227.421875 15.128906 241.726562 32.617188 241.726562 L 276.382812 241.726562 C 293.871094 241.726562 308.179688 227.421875 308.179688 209.933594 L 308.179688 35.054688 C 308.179688 17.570312 293.871094 3.261719 276.382812 3.261719 Z M 297.582031 62.613281 C 286.453125 52.015625 271.613281 45.65625 256.246094 45.65625 L 200.074219 45.65625 C 186.824219 45.65625 175.167969 38.234375 169.339844 26.578125 L 162.980469 13.859375 L 276.382812 13.859375 C 288.042969 13.859375 297.582031 23.398438 297.582031 35.054688 Z M 297.582031 62.613281 " fill-opacity="1" fill-rule="nonzero"/></g><path fill="#ffffff" d="M 96.015625 75.804688 L 99.988281 79.777344 Z M 33.222656 138.59375 L 29.25 134.617188 Z M 33.222656 154.492188 L 37.199219 150.515625 Z M 96.015625 217.28125 L 92.039062 221.253906 Z M 111.910156 217.28125 L 107.9375 213.304688 Z M 174.703125 154.492188 L 178.675781 158.464844 Z M 174.703125 138.59375 L 170.726562 142.566406 Z M 111.910156 75.804688 L 115.886719 71.828125 Z M 92.039062 71.828125 L 29.25 134.617188 L 37.199219 142.566406 L 99.988281 79.777344 Z M 29.25 158.464844 L 92.039062 221.253906 L 99.988281 213.304688 L 37.199219 150.515625 Z M 115.886719 221.253906 L 178.675781 158.464844 L 170.726562 150.515625 L 107.9375 213.304688 Z M 178.675781 134.617188 L 115.886719 71.828125 L 107.9375 79.777344 L 170.726562 142.566406 Z M 178.675781 158.464844 C 185.261719 151.878906 185.261719 141.203125 178.675781 134.617188 L 170.726562 142.566406 C 172.921875 144.761719 172.921875 148.320312 170.726562 150.515625 Z M 92.039062 221.253906 C 98.625 227.839844 109.300781 227.839844 115.886719 221.253906 L 107.9375 213.304688 C 105.742188 215.5 102.183594 215.5 99.988281 213.304688 Z M 29.25 134.617188 C 22.664062 141.203125 22.664062 151.878906 29.25 158.464844 L 37.199219 150.515625 C 35.003906 148.320312 35.003906 144.761719 37.199219 142.566406 Z M 99.988281 79.777344 C 102.183594 77.582031 105.742188 77.582031 107.9375 79.777344 L 115.886719 71.828125 C 109.300781 65.242188 98.625 65.242188 92.039062 71.828125 Z M 77.507812 94.3125 L 88.746094 105.550781 L 96.695312 97.601562 L 85.457031 86.363281 Z M 103.964844 118.4375 C 100.859375 118.4375 98.34375 115.921875 98.34375 112.820312 L 87.101562 112.820312 C 87.101562 122.132812 94.652344 129.679688 103.964844 129.679688 Z M 109.582031 112.820312 C 109.582031 115.921875 107.066406 118.4375 103.964844 118.4375 L 103.964844 129.679688 C 113.277344 129.679688 120.824219 122.132812 120.824219 112.820312 Z M 103.964844 107.199219 C 107.066406 107.199219 109.582031 109.714844 109.582031 112.820312 L 120.824219 112.820312 C 120.824219 103.507812 113.277344 95.957031 103.964844 95.957031 Z M 103.964844 95.957031 C 94.652344 95.957031 87.101562 103.507812 87.101562 112.820312 L 98.34375 112.820312 C 98.34375 109.714844 100.859375 107.199219 103.964844 107.199219 Z M 111.230469 128.035156 L 128.089844 144.894531 L 136.039062 136.945312 L 119.179688 120.085938 Z M 137.6875 152.164062 C 134.582031 152.164062 132.066406 149.644531 132.066406 146.542969 L 120.824219 146.542969 C 120.824219 155.855469 128.375 163.402344 137.6875 163.402344 Z M 143.308594 146.542969 C 143.308594 149.644531 140.789062 152.164062 137.6875 152.164062 L 137.6875 163.402344 C 147 163.402344 154.546875 155.855469 154.546875 146.542969 Z M 137.6875 140.921875 C 140.789062 140.921875 143.308594 143.4375 143.308594 146.542969 L 154.546875 146.542969 C 154.546875 137.230469 147 129.679688 137.6875 129.679688 Z M 137.6875 129.679688 C 128.375 129.679688 120.824219 137.230469 120.824219 146.542969 L 132.066406 146.542969 C 132.066406 143.4375 134.582031 140.921875 137.6875 140.921875 Z M 98.34375 124.058594 L 98.34375 169.023438 L 109.582031 169.023438 L 109.582031 124.058594 Z M 103.964844 185.886719 C 100.859375 185.886719 98.34375 183.371094 98.34375 180.265625 L 87.101562 180.265625 C 87.101562 189.578125 94.652344 197.128906 103.964844 197.128906 Z M 109.582031 180.265625 C 109.582031 183.371094 107.066406 185.886719 103.964844 185.886719 L 103.964844 197.128906 C 113.277344 197.128906 120.824219 189.578125 120.824219 180.265625 Z M 103.964844 174.644531 C 107.066406 174.644531 109.582031 177.160156 109.582031 180.265625 L 120.824219 180.265625 C 120.824219 170.953125 113.277344 163.402344 103.964844 163.402344 Z M 103.964844 163.402344 C 94.652344 163.402344 87.101562 170.953125 87.101562 180.265625 L 98.34375 180.265625 C 98.34375 177.160156 100.859375 174.644531 103.964844 174.644531 Z M 103.964844 163.402344 " fill-opacity="1" fill-rule="nonzero"/></g></g></svg>