<svg xmlns="http://www.w3.org/2000/svg" xmlns:xlink="http://www.w3.org/1999/xlink" width="500" zoomAndPan="magnify" viewBox="0 0 375 374.999991" height="500" preserveAspectRatio="xMidYMid meet" version="1.0"><defs><clipPath id="116ffeb37c"><path d="M 166 148 L 292 148 L 292 364.910156 L 166 364.910156 Z M 166 148 " clip-rule="nonzero"/></clipPath><clipPath id="830c967718"><path d="M 83 10.160156 L 211 10.160156 L 211 233 L 83 233 Z M 83 10.160156 " clip-rule="nonzero"/></clipPath></defs><g clip-path="url(#116ffeb37c)"><path fill="#f9943b" d="M 268.847656 152.292969 C 268.714844 152.050781 268.566406 151.816406 268.402344 151.589844 C 268.242188 151.367188 268.0625 151.152344 267.875 150.953125 C 267.683594 150.75 267.480469 150.5625 267.265625 150.386719 C 267.050781 150.207031 266.828125 150.046875 266.589844 149.898438 C 266.355469 149.753906 266.113281 149.621094 265.859375 149.507812 C 265.605469 149.390625 265.347656 149.292969 265.082031 149.207031 C 264.820312 149.125 264.550781 149.0625 264.277344 149.011719 C 264.003906 148.964844 263.726562 148.933594 263.449219 148.921875 C 263.171875 148.910156 262.898438 148.914062 262.621094 148.9375 C 262.34375 148.960938 262.070312 149 261.796875 149.058594 C 261.527344 149.113281 261.261719 149.191406 261 149.28125 C 260.738281 149.375 260.480469 149.484375 260.234375 149.609375 C 259.984375 149.734375 259.746094 149.871094 259.515625 150.027344 C 259.289062 150.183594 259.066406 150.351562 258.859375 150.535156 C 258.652344 150.71875 258.457031 150.917969 258.273438 151.125 C 258.089844 151.332031 257.921875 151.554688 257.765625 151.785156 L 224.117188 201.167969 C 222.472656 203.589844 221.222656 206.203125 220.363281 209.003906 C 219.484375 211.808594 219.050781 214.679688 219.054688 217.613281 L 219.054688 243.632812 C 219.066406 248.492188 218.386719 253.253906 217.015625 257.917969 C 215.621094 262.605469 213.582031 266.996094 210.894531 271.082031 L 166.8125 337.769531 L 166.996094 338.054688 L 184.507812 364.582031 L 184.507812 364.890625 L 184.507812 364.746094 L 184.609375 364.582031 L 289.417969 206.066406 C 290.148438 204.957031 290.71875 203.769531 291.128906 202.507812 C 291.539062 201.246094 291.769531 199.949219 291.824219 198.621094 C 291.882812 197.296875 291.757812 195.984375 291.457031 194.691406 C 291.15625 193.398438 290.6875 192.171875 290.050781 191.003906 Z M 268.847656 152.292969 " fill-opacity="1" fill-rule="nonzero"/></g><path fill="#f9943b" d="M 229.503906 80.480469 C 229.375 80.246094 229.230469 80.019531 229.074219 79.800781 C 228.914062 79.582031 228.742188 79.375 228.558594 79.179688 C 228.375 78.984375 228.175781 78.800781 227.96875 78.628906 C 227.761719 78.460938 227.542969 78.304688 227.3125 78.160156 C 227.085938 78.019531 226.847656 77.890625 226.601562 77.78125 C 226.359375 77.667969 226.105469 77.570312 225.847656 77.492188 C 225.59375 77.414062 225.332031 77.351562 225.066406 77.304688 C 224.800781 77.257812 224.53125 77.230469 224.261719 77.21875 C 223.996094 77.207031 223.726562 77.214844 223.457031 77.238281 C 223.1875 77.261719 222.921875 77.300781 222.660156 77.359375 C 222.398438 77.417969 222.140625 77.492188 221.886719 77.582031 C 221.632812 77.671875 221.386719 77.78125 221.144531 77.902344 C 220.90625 78.027344 220.675781 78.164062 220.453125 78.316406 C 220.230469 78.46875 220.019531 78.632812 219.820312 78.8125 C 219.621094 78.992188 219.429688 79.1875 219.253906 79.390625 C 219.078125 79.59375 218.917969 79.808594 218.769531 80.035156 L 183.8125 132.90625 C 181.351562 136.609375 179.480469 140.589844 178.199219 144.84375 C 176.925781 149.097656 176.28125 153.445312 176.261719 157.886719 L 176.261719 180.660156 C 176.265625 184.273438 175.75 187.808594 174.710938 191.269531 C 173.675781 194.730469 172.171875 197.976562 170.203125 201.003906 L 127.449219 266.304688 C 126.226562 268.164062 125.589844 270.203125 125.53125 272.425781 C 125.449219 274.601562 125.933594 276.640625 126.980469 278.550781 L 141.265625 299.261719 L 141.367188 299.097656 L 158.058594 273.875 L 250.03125 134.804688 C 250.796875 133.65625 251.390625 132.425781 251.816406 131.113281 C 252.242188 129.804688 252.484375 128.457031 252.542969 127.082031 C 252.597656 125.703125 252.46875 124.34375 252.15625 123 C 251.839844 121.65625 251.351562 120.382812 250.6875 119.171875 Z M 229.503906 80.480469 " fill-opacity="1" fill-rule="nonzero"/><g clip-path="url(#830c967718)"><path fill="#f9943b" d="M 187.222656 13.425781 C 187.089844 13.191406 186.949219 12.960938 186.789062 12.746094 C 186.628906 12.527344 186.457031 12.320312 186.273438 12.125 C 186.085938 11.929688 185.890625 11.746094 185.679688 11.574219 C 185.472656 11.40625 185.253906 11.25 185.023438 11.105469 C 184.796875 10.964844 184.558594 10.835938 184.3125 10.726562 C 184.066406 10.613281 183.816406 10.519531 183.558594 10.4375 C 183.300781 10.359375 183.039062 10.296875 182.773438 10.25 C 182.507812 10.207031 182.238281 10.175781 181.96875 10.164062 C 181.699219 10.152344 181.433594 10.160156 181.164062 10.183594 C 180.894531 10.207031 180.628906 10.246094 180.367188 10.304688 C 180.101562 10.363281 179.84375 10.4375 179.589844 10.527344 C 179.335938 10.617188 179.089844 10.726562 178.847656 10.847656 C 178.609375 10.96875 178.378906 11.109375 178.15625 11.261719 C 177.933594 11.414062 177.722656 11.578125 177.519531 11.757812 C 177.320312 11.9375 177.128906 12.128906 176.953125 12.332031 C 176.777344 12.539062 176.617188 12.753906 176.464844 12.976562 L 141.46875 65.851562 C 139.023438 69.554688 137.164062 73.53125 135.878906 77.777344 C 134.597656 82.027344 133.953125 86.371094 133.9375 90.808594 L 133.9375 113.582031 C 133.9375 117.195312 133.414062 120.734375 132.367188 124.195312 C 131.34375 127.660156 129.839844 130.90625 127.859375 133.925781 L 85.1875 199.308594 C 84.589844 200.210938 84.128906 201.175781 83.796875 202.203125 C 83.464844 203.234375 83.28125 204.285156 83.238281 205.367188 C 83.195312 206.445312 83.300781 207.511719 83.554688 208.5625 C 83.804688 209.613281 84.191406 210.609375 84.71875 211.554688 L 99.003906 232.246094 L 99.003906 232.105469 L 115.796875 206.839844 L 207.628906 67.769531 C 208.386719 66.617188 208.976562 65.382812 209.398438 64.070312 C 209.820312 62.757812 210.0625 61.410156 210.117188 60.035156 C 210.175781 58.65625 210.046875 57.292969 209.738281 55.949219 C 209.425781 54.605469 208.9375 53.328125 208.28125 52.117188 Z M 187.222656 13.425781 " fill-opacity="1" fill-rule="nonzero"/></g></svg>